# AST/ASF file generated using VICON BodyLanguage
# -----------------------------------------------
:version 1.10
:name VICON
:units
  mass 1.0
  length 0.45
  angle deg
:documentation
   .ast/.asf automatically generated from VICON data using
   VICON BodyBuilder and BodyLanguage model FoxedUp or BRILLIANT.MOD
:root
   order TX TY TZ RX RY RZ
   axis XYZ
   position 0 0 0  
   orientation 0 0 0 
:bonedata
  begin
     id 1 
     name lhipjoint
     direction 0.612567 -0.751349 0.245431 
     length 2.42285 
     axis 0 0 0  XYZ
  end
  begin
     id 2 
     name lfemur
     direction 0.34202 -0.939693 0  
     length 7.11304  
     axis 0 0 20  XYZ
    dof rx ry rz
    limits (-160.0 20.0)
           (-70.0 70.0)
           (-60.0 70.0)
  end
  begin
     id 3 
     name ltibia
     direction 0.34202 -0.939693 0   
     length 7.84529   
     axis 0 0 20   XYZ
    dof rx
    limits (-10.0 170.0)
  end
  begin
     id 4 
     name lfoot
     direction 0.0779239 -0.214094 0.9737   
     length 1.97176   
     axis -90 7.62852e-016 20   XYZ
    dof rx rz
    limits (-45.0 90.0)
           (-70.0 20.0)
  end
  begin
     id 5 
     name ltoes
     direction 1.53565e-011 -4.21709e-011 1   
     length 0.993197   
     axis -90 7.62852e-016 20   XYZ
    dof rx
    limits (-90.0 20.0)
  end
  begin
     id 6 
     name rhipjoint
     direction -0.665722 -0.709315 0.231701   
     length 2.56642  
     axis 0 0 0  XYZ 
  end
  begin
     id 7 
     name rfemur
     direction -0.34202 -0.939693 0   
     length 7.32108   
     axis 0 0 -20   XYZ
    dof rx ry rz
    limits (-160.0 20.0)
           (-70.0 70.0)
           (-70.0 60.0)
  end
  begin
     id 8 
     name rtibia
     direction -0.34202 -0.939693 0   
     length 7.81254   
     axis 0 0 -20   XYZ
    dof rx
    limits (-10.0 170.0)
 end
 begin
     id 9 
     name rfoot
     direction -0.0832806 -0.228812 0.969902   
     length 2.08278  
     axis -90 -7.62852e-016 -20   XYZ
    dof rx rz
    limits (-45.0 90.0)
           (-20.0 70.0)
  end
  begin
     id 10 
     name rtoes
     direction -1.53589e-011 -4.22086e-011 1   
     length 1.04609   
     axis -90 -7.62852e-016 -20   XYZ
    dof rx
    limits (-90.0 20.0)
  end
  begin
     id 11 
     name lowerback
     direction -0.00506013 0.988403 -0.151766   
     length 2.01978   
     axis 0 0 0   XYZ
    dof rx ry rz
    limits (-20.0 45.0)
           (-30.0 30.0)
           (-30.0 30.0)
  end
  begin
     id 12 
     name upperback
     direction -0.00836389 0.99968 0.0238859   
     length 2.01276   
     axis 0 0 0   XYZ
    dof rx ry rz
    limits (-20.0 45.0)
           (-30.0 30.0)
           (-30.0 30.0)
  end
  begin
     id 13 
     name thorax
     direction -0.00684136 0.995386 0.0957043   
     length 2.07303   
     axis 0 0 0   XYZ
    dof rx ry rz
    limits (-20.0 45.0)
           (-30.0 30.0)
           (-30.0 30.0)
  end
  begin
     id 14 
     name lowerneck
     direction -0.0161045 0.999661 0.0204485   
     length 1.91243   
     axis 0 0 0   XYZ
    dof rx ry rz
    limits (-20.0 45.0)
           (-30.0 30.0)
           (-30.0 30.0)
  end
  begin
     id 15 
     name upperneck
     direction 0.0553583 0.990946 -0.122319   
     length 1.91574   
     axis 0 0 0   XYZ
    dof rx ry rz
    limits (-20.0 45.0)
           (-30.0 30.0)
           (-30.0 30.0)
  end
  begin
     id 16
     name head
     direction 0.0180273 0.998839 -0.0446756  
     length 1.92693  
     axis 0 0 0   XYZ
    dof rx ry rz
    limits (-20.0 45.0)
           (-30.0 30.0)
           (-30.0 30.0)
  end
  begin
     id 17 
     name lclavicle
     direction 0.945646 0.319323 -0.0615358  
     length 4.0076  
     axis 0 0 0   XYZ
    dof ry rz
    limits (-20.0 10.0)
           (0.0 20.0)
  end
  begin
     id 18 
     name lhumerus
     direction 1 -4.48967e-011 -2.79996e-027   
     length 5.64147   
     axis 180 -30 -90   XYZ
    dof rx ry rz
    limits (-60.0 90.0)
           (-90.0 90.0)
           (-90.0 90.0)
  end
  begin
     id 19
     name lradius
     direction 1 -4.48976e-011 -9.5122e-027   
     length 2.86444   
     axis 180 -30 -90   XYZ
    dof rx
    limits (-10.0 170.0)
  end
  begin
     id 20
     name lwrist
     direction 1 -4.48983e-011 -1.24047e-026   
     length 1.43222   
     axis 9.05591e-015 90 90   XYZ
    dof ry
    limits (-180.0 0.0)
 end
  begin
     id 21 
     name lhand
     direction 1 -4.4892e-011 -2.48094e-026   
     length 0.722123   
     axis 1.58305e-014 90 90   XYZ
    dof rx rz
    limits (-90.0 90.0)
           (-45.0 45.0)
  end
  begin
     id 22 
     name lfingers
     direction 1 -4.48895e-011 -4.96187e-026   
     length 0.582194   
     axis 3.1661e-014 90 90   XYZ
    dof rx
    limits (0.0 90.0)
  end
  begin
     id 23
     name lthumb
     direction 0.707107 -6.34961e-011 0.707107   
     length 0.835918   
     axis -90 45 2.85299e-015   XYZ
    dof rx rz
    limits (-45.0 45.0)
           (-45.0 45.0)
  end
  begin
     id 24 
     name rclavicle
     direction -0.932635 0.324218 -0.15835   
     length 3.65819  
     axis 0 0 0   XYZ 
    dof ry rz
    limits (-10.0 20.0)
           (-20.0 0.0)
  end
  begin
     id 25 
     name rhumerus
     direction -1 -4.48965e-011 -4.02296e-027  
     length 5.44729   
     axis 180 30 90   XYZ
    dof rx ry rz
    limits (-90.0 60.0)
           (-90.0 90.0)
           (-90.0 90.0)
  end
  begin
     id 26 
     name rradius
     direction -1 -4.48957e-011 -8.81087e-027   
     length 3.08821   
     axis 180 30 90   XYZ
    dof rx
    limits (-10.0 170.0)
  end
  begin
     id 27 
     name rwrist
     direction -1 -4.49015e-011 -1.24047e-026   
     length 1.5441   
     axis 9.05591e-015 -90 -90   XYZ
    dof ry
    limits (-180.0 0.0)
  end
  begin
     id 28
     name rhand
     direction -1 -4.4891e-011 -2.48094e-026   
     length 0.821049   
     axis 1.58305e-014 -90 -90   XYZ
    dof rx rz
    limits (-90.0 90.0)
           (-45.0 45.0)
  end
  begin
     id 29
     name rfingers
     direction -1 -4.48985e-011 -4.96187e-026   
     length 0.661951   
     axis 3.1661e-014 -90 -90   XYZ
    dof rx
    limits (0.0 90.0)
  end
  begin
     id 30
     name rthumb
     direction -0.707107 -6.34906e-011 0.707107   
     length 0.950433   
     axis -90 -45 -2.85299e-015   XYZ
    dof rx rz
    limits (-45.0 45.0)
           (-45.0 45.0)
  end
:hierarchy
  begin
    root lhipjoint rhipjoint lowerback
    lhipjoint lfemur
    lfemur ltibia
    ltibia lfoot
    lfoot ltoes
    rhipjoint rfemur
    rfemur rtibia
    rtibia rfoot
    rfoot rtoes
    lowerback upperback
    upperback thorax
    thorax lowerneck lclavicle rclavicle
    lowerneck upperneck
    upperneck head
    lclavicle lhumerus
    lhumerus lradius
    lradius lwrist
    lwrist lhand lthumb
    lhand lfingers
    rclavicle rhumerus
    rhumerus rradius
    rradius rwrist
    rwrist rhand rthumb
    rhand rfingers
  end

#!OML:ASF F:\VICON\USERDATA\INSTALL\rory3\rory3.ASF
:FULLY-SPECIFIED
:DEGREES
1436
root 3.29878 17.6937 0.173798 431.631 90.255 434.328
lowerback 7.1264 0.359335 3.0958
upperback 0.428009 0.717831 -0.637507
thorax -3.50875 0.309562 -2.47229
lowerneck -2.23399 -5.2402 -5.30821
upperneck 0.875043 -6.96719 8.45568
head 1.20909 -3.40586 3.53123
rclavicle 7.7891e-015 5.06901e-015
rhumerus -36.5855 -9.13661 -80.4302
rradius 30.0947
rwrist 19.3085
rhand -7.73419 9.3549
rfingers 7.12502
rthumb 18.1646 -19.8169
lclavicle 7.7891e-015 5.06901e-015
lhumerus -33.1488 -8.9968 88.9809
lradius 27.0481
lwrist 38.5406
lhand -15.2184 7.92995
lfingers 7.12502
lthumb 10.9541 37.6242
rfemur 2.94792 0.943019 19.1135
rtibia 15.0391
rfoot -18.6485 -7.57798
rtoes -7.56422
lfemur 4.06844 1.02528 -16.07
ltibia 7.81407
lfoot -9.33478 -0.868582
ltoes -5.897
1437
root 3.30009 17.6957 0.174307 426.361 90.2647 429.067
lowerback 7.10166 0.375895 3.11928
upperback 0.452818 0.740628 -0.645851
thorax -3.46728 0.321663 -2.49585
lowerneck -2.24717 -5.26409 -5.37136
upperneck 0.878464 -6.9985 8.52368
head 1.22094 -3.42059 3.56537
rclavicle 9.33356e-015 -1.49089e-015
rhumerus -36.7623 -8.80222 -80.576
rradius 31.0003
rwrist 18.5683
rhand -7.92194 9.44092
rfingers 7.12502
rthumb 17.9839 -19.7476
lclavicle 9.33356e-015 -1.49089e-015
lhumerus -33.1286 -9.32057 89.0888
lradius 27.1254
lwrist 38.7208
lhand -15.1928 7.74442
lfingers 7.12502
lthumb 10.9788 37.4373
rfemur 2.94448 1.03659 19.1117
rtibia 15.1046
rfoot -18.8085 -7.49153
rtoes -6.35023
lfemur 4.19247 0.998659 -16.0639
ltibia 7.59195
lfoot -9.21439 -0.878506
ltoes -5.49711
1438
root 3.30187 17.6966 0.173721 417.021 90.2079 419.737
lowerback 7.09036 0.405583 3.09049
upperback 0.450985 0.776171 -0.681674
thorax -3.46037 0.339602 -2.52012
lowerneck -2.18882 -5.28969 -5.38051
upperneck 0.865174 -7.03401 8.52506
head 1.2094 -3.43983 3.56808
rclavicle -5.91384e-015 3.50358e-015
rhumerus -37.0311 -8.47528 -80.7253
rradius 31.934
rwrist 18.0372
rhand -8.42434 9.8509
rfingers 7.12502
rthumb 17.5005 -19.3814
lclavicle -5.91384e-015 3.50358e-015
lhumerus -33.1695 -9.65782 89.2128
lradius 27.2809
lwrist 38.7544
lhand -15.2236 7.83756
lfingers 7.12502
lthumb 10.9491 37.5321
rfemur 2.91219 1.00144 19.0262
rtibia 15.2004
rfoot -18.8278 -7.46696
rtoes -6.42622
lfemur 4.37858 0.991849 -16.1415
ltibia 7.2785
lfoot -9.06533 -0.852203
ltoes -5.64316
1439
root 3.30167 17.6986 0.17274 397.254 90.1773 399.956
lowerback 7.09865 0.411347 3.04915
upperback 0.430203 0.779857 -0.707724
thorax -3.48649 0.34104 -2.52453
lowerneck -2.17963 -5.30764 -5.41014
upperneck 0.922602 -7.06145 8.53886
head 1.23045 -3.45313 3.57733
rclavicle -6.05206e-015 2.73329e-016
rhumerus -37.2795 -8.19329 -80.8362
rradius 32.9219
rwrist 17.8221
rhand -8.02646 9.59382
rfingers 7.12502
rthumb 17.8834 -19.6039
lclavicle -6.05206e-015 2.73329e-016
lhumerus -33.2156 -9.95605 89.3354
lradius 27.5175
lwrist 38.8317
lhand -15.3092 8.23408
lfingers 7.12502
lthumb 10.8665 37.9329
rfemur 2.8451 0.960567 18.9431
rtibia 15.3071
rfoot -18.843 -7.47442
rtoes -6.53734
lfemur 4.51779 0.965558 -16.2203
ltibia 6.97841
lfoot -8.92573 -0.812772
ltoes -5.49983
1440
root 3.30123 17.7 0.171642 370.903 90.1961 373.556
lowerback 7.05208 0.412686 3.01426
upperback 0.417032 0.775947 -0.74421
thorax -3.47424 0.339316 -2.54176
lowerneck -2.17384 -5.32559 -5.43045
upperneck 0.947365 -7.08736 8.5844
head 1.24255 -3.46535 3.59607
rclavicle -5.94801e-015 -4.42296e-015
rhumerus -37.4986 -7.91379 -80.9551
rradius 34.0644
rwrist 17.656
rhand -7.02573 8.93599
rfingers 7.12502
rthumb 18.8461 -20.171
lclavicle -5.94801e-015 -4.42296e-015
lhumerus -33.2319 -10.3787 89.4714
lradius 27.7488
lwrist 39.0293
lhand -15.2389 8.41302
lfingers 7.12502
lthumb 10.9344 38.1083
rfemur 2.75062 0.887449 18.8563
rtibia 15.3736
rfoot -18.831 -7.46846
rtoes -6.84153
lfemur 4.50302 0.918253 -16.3064
ltibia 6.8798
lfoot -8.85444 -0.80039
ltoes -5.03437
1441
root 3.30289 17.6991 0.171852 350.88 90.1855 353.507
lowerback 6.99868 0.430173 2.94759
upperback 0.420771 0.791168 -0.773524
thorax -3.43987 0.348345 -2.53524
lowerneck -2.20509 -5.32916 -5.43379
upperneck 0.994471 -7.09411 8.6132
head 1.26549 -3.46704 3.60524
rclavicle -7.8186e-015 -5.06901e-015
rhumerus -37.7644 -7.26258 -81.2349
rradius 35.3683
rwrist 17.3716
rhand -6.66095 8.57017
rfingers 7.12502
rthumb 19.1969 -20.5024
lclavicle -7.8186e-015 -5.06901e-015
lhumerus -33.2524 -10.821 89.619
lradius 28.0229
lwrist 39.1836
lhand -15.1833 8.49143
lfingers 7.12502
lthumb 10.9879 38.1839
rfemur 2.72438 0.895324 18.7855
rtibia 15.3754
rfoot -18.8164 -7.49765
rtoes -7.14188
lfemur 4.39777 0.929596 -16.38
ltibia 7.03738
lfoot -8.91387 -0.839155
ltoes -4.86284
1442
root 3.30391 17.6944 0.172341 341.483 90.1963 344.094
lowerback 6.95012 0.446059 2.89447
upperback 0.423538 0.806394 -0.77941
thorax -3.4094 0.357224 -2.51212
lowerneck -2.25051 -5.34179 -5.44928
upperneck 1.08481 -7.11466 8.62467
head 1.3058 -3.47518 3.60949
rclavicle 2.02279e-015 -5.06901e-015
rhumerus -38.0579 -6.35423 -81.5803
rradius 36.819
rwrist 16.9715
rhand -6.56922 8.46838
rfingers 7.12502
rthumb 19.2851 -20.5954
lclavicle 2.02279e-015 -5.06901e-015
lhumerus -33.2273 -11.2519 89.7689
lradius 28.3325
lwrist 39.2041
lhand -15.0868 8.76449
lfingers 7.12502
lthumb 11.081 38.452
rfemur 2.7202 0.843012 18.7558
rtibia 15.3519
rfoot -18.799 -7.54007
rtoes -7.66712
lfemur 4.27464 0.927367 -16.4103
ltibia 7.23655
lfoot -9.01708 -0.857809
ltoes -5.07237
